<svg xmlns="http://www.w3.org/2000/svg" viewBox="0 0 120 120" role="img" aria-labelledby="title">
  <title id="title">Театральные маски эмоций</title>
  <g stroke="#24170f" stroke-linecap="round" stroke-linejoin="round" stroke-width="5">
    <path fill="#c6b6e9" d="M18 25c22-8 42 0 49 10v27c-3 17-14 29-29 33C24 87 17 73 18 57z"/>
    <path fill="#fffaf0" d="M57 26c20-9 39-4 48 5l-1 31c-5 18-17 29-33 31-13-9-18-22-15-38z"/>
    <path fill="none" d="M31 48c4-4 9-4 13 0m-11 25c7-6 15-6 22 0M72 48c4 4 9 4 13 0m-15 24c7 7 16 7 23 0"/>
  </g>
</svg>
